<svg width="322" height="214" viewBox="0 0 322 214" fill="none" xmlns="http://www.w3.org/2000/svg">
<g clip-path="url(#clip0_2931_3140)">
<path d="M289 137.3L341 108.6C343.7 107.1 347 109.1 347 112.2V130C347 138.2 340.3 144.9 332.1 144.9H291C286.8 144.9 285.3 139.3 289 137.3Z" fill="url(#paint0_radial_2931_3140)"/>
<path d="M2.09976 205.9L54.0998 177.2C56.7998 175.7 60.0998 177.7 60.0998 180.8V198.7C60.0998 206.9 53.3998 213.6 45.1998 213.6H4.09976C-0.100241 213.5 -1.60024 207.9 2.09976 205.9Z" fill="#00A590"/>
<path d="M58.8998 126.8L110.9 98.1C113.6 96.6 116.9 98.6 116.9 101.7V119.6C116.9 127.8 110.2 134.5 102 134.5H60.7998C56.6998 134.5 55.1998 128.9 58.8998 126.8Z" fill="#5FC0C6"/>
<path d="M277.5 29.2L329.5 0.500035C332.2 -0.999965 335.5 1.00003 335.5 4.10003V22C335.5 30.2 328.8 36.9 320.6 36.9H279.5C275.3 36.9 273.8 31.3 277.5 29.2Z" fill="#91D0D5"/>
<path d="M131.5 128.1L162.9 110.8C164.5 109.9 166.5 111.1 166.5 112.9V123.7C166.5 128.7 162.5 132.7 157.5 132.7H132.7C130.2 132.7 129.3 129.4 131.5 128.1Z" fill="#00A590"/>
<path d="M296.4 87.8999L244.4 116.6C240.7 118.6 242.2 124.2 246.4 124.2H287.5C295.7 124.2 302.4 117.5 302.4 109.3V91.4999C302.4 88.3999 299.1 86.3999 296.4 87.8999Z" fill="#9FC63B"/>
<path d="M229.8 127.6L141.7 176.3C135.5 179.7 137.9 189.2 145 189.2H214.7C228.7 189.2 240 177.9 240 163.9V133.6C240 128.4 234.4 125 229.8 127.6Z" fill="#004B6C"/>
<path d="M170.5 174.5C172.1 173.6 172.3 172.1 172 171C171.7 169.9 170.8 168.7 169 168.7H127.7C120 168.7 113.7 175 113.7 182.7V185.3L111.8 184.2V182.6C111.8 173.8 119 166.6 127.8 166.6H169C171.3 166.6 173.3 168.1 173.9 170.4C174 170.8 174.1 171.3 174.1 171.7C174.1 173.5 173.1 175.2 171.5 176.1L134.3 196.6L132.3 195.5L170.5 174.5Z" fill="#AACD72"/>
<path d="M114.1 205C112.5 204.1 111.6 202.5 111.6 200.6V184.2L113.5 185.3V200.6C113.5 201.7 114.1 202.7 115 203.3C116 203.9 117.1 203.9 118.1 203.3L132.1 195.6L134.1 196.7L119 205C117.6 205.9 115.7 205.9 114.1 205Z" fill="#AACD72"/>
<path d="M224.2 63.1C225.2 62.5 225.4 61.5 225.2 60.8C225 60.1 224.4 59.3 223.2 59.3H196.2C191.1 59.3 187 63.4 187 68.5V70.2L185.7 69.5V68.5C185.7 62.7 190.4 58 196.2 58H223.2C224.7 58 226 59 226.4 60.5C226.5 60.8 226.5 61.1 226.5 61.4C226.5 62.6 225.9 63.7 224.8 64.3L200.5 77.7L199.2 77L224.2 63.1Z" fill="white"/>
<path d="M187.4 83C186.4 82.4 185.8 81.3 185.8 80.2V69.5L187.1 70.2V80.2C187.1 80.9 187.5 81.6 188.1 82C188.7 82.4 189.5 82.4 190.1 82L199.3 76.9L200.6 77.6L190.7 83.1C189.6 83.7 188.4 83.6 187.4 83Z" fill="white"/>
<path d="M333 69.7C333.7 69.3 333.8 68.6 333.7 68.1C333.6 67.6 333.1 67 332.3 67H313.3C309.7 67 306.8 69.9 306.8 73.5V74.7L305.9 74.2V73.5C305.9 69.4 309.2 66.1 313.3 66.1H332.3C333.4 66.1 334.3 66.8 334.6 67.8C334.7 68 334.7 68.2 334.7 68.4C334.7 69.2 334.3 70 333.5 70.4L316.4 79.8L315.5 79.3L333 69.7Z" fill="#91D0D5"/>
<path d="M307.1 83.7C306.4 83.3 306 82.5 306 81.7V74.2L306.9 74.7V81.7C306.9 82.2 307.2 82.7 307.6 82.9C308 83.2 308.6 83.2 309 82.9L315.4 79.3L316.3 79.8L309.4 83.6C308.7 84.2 307.8 84.2 307.1 83.7Z" fill="#91D0D5"/>
<path d="M104.5 160.1C105.5 159.5 105.7 158.5 105.5 157.8C105.3 157.1 104.7 156.3 103.5 156.3H76.5C71.4 156.3 67.3 160.4 67.3 165.5V167.2L66 166.5V165.5C66 159.7 70.7 155 76.5 155H103.5C105 155 106.3 156 106.7 157.5C106.8 157.8 106.8 158.1 106.8 158.4C106.8 159.6 106.2 160.7 105.1 161.3L80.8 174.7L79.5 174L104.5 160.1Z" fill="#00A590"/>
<path d="M67.6 180C66.6 179.4 66 178.3 66 177.2V166.5L67.3 167.2V177.2C67.3 177.9 67.7 178.6 68.3 179C68.9 179.4 69.7 179.4 70.3 179L79.5 173.9L80.8 174.6L70.9 180.1C69.9 180.7 68.7 180.6 67.6 180Z" fill="#00A590"/>
<path d="M197.201 62.1C196.101 62.7 194.901 62.7 193.801 62.1C192.801 61.5 192.101 60.4 192.101 59.2V42.4L212.501 53.7L197.201 62.1Z" fill="#A4D8E0"/>
<path d="M174.2 70.8V43.2C174.2 38.4 179.3 35.4 183.5 37.7L189.9 41.3V59.2C189.9 61.2 190.9 63 192.6 64C194.3 65 196.4 65 198.1 64.1L214.6 55L264 82.3C269.7 85.4 267.5 94.1 261 94.1H197.3C184.6 94 174.2 83.6 174.2 70.8Z" fill="#A4D8E0"/>
<path d="M254.3 30.5C256 29.6 256.3 27.9 256 26.7C255.7 25.5 254.7 24.1 252.7 24.1H207.5C199 24.1 192.1 31 192.1 39.5V42.4L190 41.2V39.5C190 29.9 197.8 22 207.5 22H252.7C255.3 22 257.4 23.7 258.1 26.1C258.2 26.6 258.3 27.1 258.3 27.5C258.3 29.5 257.2 31.3 255.4 32.3L214.7 54.8L212.5 53.6L254.3 30.5Z" fill="#AACD72"/>
<path d="M192.7 63.9C191 62.9 190 61.0999 190 59.0999V41.2L192.1 42.4V59.0999C192.1 60.2999 192.7 61.4 193.8 62C194.8 62.6 196.1 62.6 197.2 62L212.5 53.5L214.7 54.7L198.2 64C196.5 64.9 194.4 64.9 192.7 63.9Z" fill="white"/>
</g>
<defs>
<radialGradient id="paint0_radial_2931_3140" cx="0" cy="0" r="1" gradientUnits="userSpaceOnUse" gradientTransform="translate(130.592 -235.225) rotate(180) scale(365.111 365.111)">
<stop offset="0.3785" stop-color="#00A590"/>
<stop offset="0.738" stop-color="#006071"/>
<stop offset="0.9989" stop-color="#004B6C"/>
</radialGradient>
<clipPath id="clip0_2931_3140">
<rect width="347" height="213.5" fill="white"/>
</clipPath>
</defs>
</svg>
