<svg xmlns="http://www.w3.org/2000/svg" width="224.946" height="31.476" viewBox="0 0 224.946 31.476">
    <defs></defs>
    <g id="prefix__Layer_2" data-name="Layer 2" transform="translate(.02)">
        <g id="prefix__Layer_1" data-name="Layer 1" transform="translate(-.02)">
            <path id="prefix__Path_333" d="M15.731 0a15.672 15.672 0 1 0 11.13 4.586A15.738 15.738 0 0 0 15.731 0zm5.984 25.558a8.37 8.37 0 0 1-3.177 1.924 8.014 8.014 0 0 1-5.272-15.132l.382-.158-.461-.409a4.647 4.647 0 1 1 7.434-4.416A4.561 4.561 0 0 1 19.5 11.23c-.237.29-.54.5-.87.2s-.092-.58.119-.844a3.572 3.572 0 0 0-2.1-5.892 3.638 3.638 0 0 0-4.126 3.018 3.625 3.625 0 0 0 2.9 4.047 1.418 1.418 0 0 1 .54.066 2.768 2.768 0 0 1 .54.5c-.185.145-.343.382-.54.422-.527.119-1.094.092-1.608.224a7.039 7.039 0 0 0 1.463 13.866 6.867 6.867 0 0 0 5.621-2.637 3.467 3.467 0 0 0 .646-3.77A3.612 3.612 0 0 0 19 18.137h-.422a.688.688 0 0 1-.4-.435.909.909 0 0 1 .33-.567c.092-.092.3 0 .461-.079a1.76 1.76 0 1 0-2.03-1.99.751.751 0 0 0 0 .171c0 .382-.2.646-.593.62s-.514-.316-.5-.685a2.847 2.847 0 1 1 5.009 1.977l-.25.33a4.811 4.811 0 0 1 1.107 8.08z" fill="#ffb05e" data-name="Path 333" transform="translate(.02)"></path>
            <path id="prefix__Path_334" d="M37.293 16.927v6.208h-3.427V16.8L27.79 6h3.954l3.956 7.263L39.508 6h3.822z" fill="#231f20" data-name="Path 334" transform="translate(8.866 1.909)"></path>
            <path id="prefix__Path_335" d="M38.56 15.871a6.419 6.419 0 1 1 6.419 6.329 6.3 6.3 0 0 1-6.419-6.327zm9.134 0a2.742 2.742 0 1 0-5.457 0 2.887 2.887 0 0 0 2.742 3.177 2.834 2.834 0 0 0 2.715-3.19z" fill="#231f20" data-name="Path 335" transform="translate(12.292 2.977)"></path>
            <path id="prefix__Path_336" d="M61.552 9.71v12.245h-3.414l-.145-1.2a4.4 4.4 0 0 1-3.48 1.318 4.218 4.218 0 0 1-4.429-4.6V9.71h3.651v6.973c0 1.318.382 2.373 1.779 2.373S57.9 18.3 57.9 16.419V9.71z" fill="#231f20" data-name="Path 336" transform="translate(15.952 3.089)"></path>
            <path id="prefix__Path_337" d="M69.188 9.726v3.308c-3.506-.4-4.508 1.318-4.508 3.48v5.457H61.2V9.779h3.308l.119 1.648h.264a4.745 4.745 0 0 1 3.822-1.767 2.873 2.873 0 0 1 .475.066z" fill="#231f20" data-name="Path 337" transform="translate(19.494 3.072)"></path>
            <path id="prefix__Path_338" d="M70.54 6h3.453v17.135H70.54z" fill="#ffb05e" data-name="Path 338" transform="translate(22.465 1.909)"></path>
            <path id="prefix__Path_339" d="M91.448 6l-6.59 17.135h-3.335L74.84 6h3.625l4.771 12.575L87.823 6z" fill="#ffb05e" data-name="Path 339" transform="translate(23.832 1.909)"></path>
            <path id="prefix__Path_340" d="M92.573 9.032v4.138h8.8v3.058h-8.8v6.907H89.12V6h13.18v3.032z" fill="#ffb05e" data-name="Path 340" transform="translate(28.375 1.909)"></path>
            <path id="prefix__Path_341" d="M102.682 18.252a8.989 8.989 0 0 0 4.8 1.819c2.069.145 3.651-.4 3.651-2.043 0-3.084-10.07-1.147-10.07-7.3 0-3.546 3.783-4.943 6.986-4.824a9.424 9.424 0 0 1 6.2 2.478l-2.069 2.452a6.274 6.274 0 0 0-4.363-1.885c-1.977-.105-3.229.672-3.229 1.779 0 3.137 9.978.989 9.9 7.355 0 2.359-1.938 5.272-6.445 5.272a10.742 10.742 0 0 1-7.223-2.5z" fill="#231f20" data-name="Path 341" transform="translate(32.093 1.875)"></path>
            <path id="prefix__Path_342" d="M124.622 9.71v12.245h-3.4l-.158-1.2a4.389 4.389 0 0 1-3.467 1.318 4.218 4.218 0 0 1-4.442-4.6V9.71h3.651v6.973c0 1.318.4 2.373 1.793 2.373s2.373-.751 2.373-2.636V9.71z" fill="#231f20" data-name="Path 342" transform="translate(36.014 3.089)"></path>
            <path id="prefix__Path_343" d="M123.342 15.818a5.918 5.918 0 0 1 6.274-6.2 6.2 6.2 0 0 1 4.9 2.254l-2.4 2.2a3.018 3.018 0 0 0-2.531-1.318 2.781 2.781 0 0 0-2.636 3.163c0 2.017 1.173 3.137 2.636 3.137a3.071 3.071 0 0 0 2.636-1.463l2.531 2.017a6.169 6.169 0 0 1-5.272 2.5 5.984 5.984 0 0 1-6.142-6.3z" fill="#231f20" data-name="Path 343" transform="translate(39.258 3.057)"></path>
            <path id="prefix__Path_344" d="M133.224 15.818a5.918 5.918 0 0 1 6.3-6.2 6.2 6.2 0 0 1 4.9 2.254l-2.4 2.2a3.032 3.032 0 0 0-2.524-1.312 2.781 2.781 0 0 0-2.636 3.163c0 2.017 1.173 3.137 2.636 3.137a3.071 3.071 0 0 0 2.636-1.463l2.5 2.122a6.182 6.182 0 0 1-5.272 2.5 5.984 5.984 0 0 1-6.142-6.406z" fill="#231f20" data-name="Path 344" transform="translate(42.399 3.057)"></path>
            <path id="prefix__Path_345" d="M154.835 17.05h-8.5a2.715 2.715 0 0 0 2.847 1.99 3.677 3.677 0 0 0 2.913-1.5l2.425 2.017a6.815 6.815 0 0 1-5.734 2.544 6 6 0 0 1-6.05-6.155 5.852 5.852 0 0 1 6.2-6.34c4.528.023 6.585 3.332 5.899 7.444zm-8.475-2.45h5.075a2.267 2.267 0 0 0-2.531-2.109 2.425 2.425 0 0 0-2.544 2.109z" fill="#231f20" data-name="Path 345" transform="translate(45.423 3.051)"></path>
            <path id="prefix__Path_346" d="M163.946 11.451l-2.135 2.228a4.89 4.89 0 0 0-3.163-1.173c-1 0-1.424.316-1.424.633 0 .672 1.252.844 2.636 1.213 1.911.488 4.086 1.094 4.086 3.638 0 2.781-1.951 4.1-4.877 4.1a8.462 8.462 0 0 1-5.879-2l2.228-2.333a5.575 5.575 0 0 0 3.467 1.318c1.041 0 1.608-.277 1.608-.685 0-.791-1.74-.962-3.453-1.5s-3.572-1.621-3.335-3.954 2.386-3.335 5.022-3.335a7.2 7.2 0 0 1 5.22 1.859z" fill="#231f20" data-name="Path 346" transform="translate(48.755 3.048)"></path>
            <path id="prefix__Path_347" d="M173.226 11.442l-2.148 2.267a4.89 4.89 0 0 0-3.163-1.173c-1 0-1.41.316-1.41.633 0 .672 1.239.844 2.636 1.213 1.911.488 4.1 1.094 4.1 3.638 0 2.781-1.964 4.1-4.877 4.1a8.475 8.475 0 0 1-5.892-2l2.241-2.333a5.536 5.536 0 0 0 3.453 1.318c1.054 0 1.621-.277 1.621-.685 0-.791-1.74-.962-3.467-1.5s-3.572-1.621-3.335-3.954 2.386-3.335 5.035-3.335a7.17 7.17 0 0 1 5.206 1.819z" fill="#231f20" data-name="Path 347" transform="translate(51.707 3.057)"></path>
        </g>
    </g>
</svg>